<?xml version="1.0" encoding="utf-8"?>
<!-- Generator: Adobe Illustrator 26.0.2, SVG Export Plug-In . SVG Version: 6.00 Build 0)  -->
<svg version="1.1" id="Layer_1" xmlns="http://www.w3.org/2000/svg" xmlns:xlink="http://www.w3.org/1999/xlink" x="0px" y="0px"
	 viewBox="0 0 1070.93 566.48" style="enable-background:new 0 0 1070.93 566.48;" xml:space="preserve">
<style type="text/css">
	.st0{fill:#FFFFFF;}
	.st1{fill:#064665;}
	.st2{fill:#0B0909;}
</style>
<rect class="st0" width="1070.93" height="566.48"/>
<g>
	<g>
		<path class="st1" d="M852.87,564.22h-74.73V463.06h24.91v79.41h49.82V564.22z"/>
		<path class="st1" d="M950.56,564.22h-74.73V463.06h24.91v79.41h49.82V564.22z"/>
		<path class="st1" d="M1071.8,526.33c-2.31,12.48-8.1,22.29-17.36,29.44c-9.26,7.15-20.48,10.72-33.67,10.72
			c-15,0-27.7-5.08-38.12-15.25c-10.42-10.17-15.63-22.7-15.63-37.59c0-14.8,5.21-27.3,15.63-37.52
			c10.42-10.22,23.12-15.32,38.12-15.32c12.68,0,23.73,3.52,33.14,10.57c9.41,7.05,15.33,16.46,17.74,28.23l-24.46,6.19
			c-1.51-7.35-4.6-12.88-9.28-16.61c-4.68-3.72-10.39-5.59-17.14-5.59c-8.05,0-14.87,2.87-20.46,8.61
			c-5.59,5.74-8.38,12.88-8.38,21.44c0,8.56,2.79,15.73,8.38,21.51c5.59,5.79,12.41,8.68,20.46,8.68c6.64,0,12.31-1.91,16.98-5.74
			c4.68-3.83,7.88-9.51,9.59-17.06L1071.8,526.33z"/>
	</g>
	<path class="st1" d="M184.85,334.16V203.91c-3.47,0.07-6.92,0.17-10.34,0.32c-32.25,0.84-63.51,3.64-93.84,8.44v121.49H0v91.48
		h265.52v-91.48H184.85z"/>
	<path class="st2" d="M0,0v91.48h80.67v69.47c34.88-3.57,69.57-4.63,104.18-3.84V91.48h80.67V0H0z"/>
	<path class="st2" d="M638.75,62.55C596.45,20.85,544.66,0,483.34,0c-61.3,0-113.09,20.85-155.38,62.55
		c-29.27,28.83-48.42,62.06-57.41,99.7c33.6,3.15,67.21,7.43,100.91,12.23c5.46-17.68,14.77-33.33,27.92-46.97
		c22.48-23.29,50.47-34.93,83.97-34.93c33.53,0,61.52,11.64,83.99,34.93c20.63,21.39,31.78,47.73,33.48,79.07
		c33.46,3.57,67.23,6.2,101.37,7.36C701.92,154.42,680.77,103.93,638.75,62.55z"/>
	<path class="st1" d="M618.83,384.38c26.14-20.01,46.6-44.73,61.3-74.17c9.7-19.4,16.22-39.81,19.5-61.17
		c-19.92,0.49-40.35,0.54-61.35,0.17c-13.74-0.25-27.37-0.79-40.91-1.58c-4.95,20.73-14.97,38.82-30.03,54.31
		c-22.48,23.09-50.47,34.64-83.99,34.64c-33.5,0-61.49-11.55-83.97-34.64c-21.59-22.18-32.82-49.75-33.68-82.67
		c-34.54-5.05-68.21-9.53-101.05-12.38c-0.1,2.73-0.15,5.51-0.15,8.3c0,59.67,21.15,110.26,63.46,151.74
		c42.29,41.48,94.09,62.21,155.38,62.21c11.45,0,23.71-1.01,36.8-3.05l92.49,137.56h132.42L618.83,384.38z"/>
	<path class="st1" d="M1020.37,198.86c-55.83,17.68-121.07,32.49-196.08,41.46c6.82,2.24,14.03,4.21,21.66,5.96l85.13,18.24
		c14.18,2.83,24.03,7.09,29.49,12.75c5.46,5.69,8.2,13.39,8.2,23.12c0,12.55-5.37,22.7-16.1,30.4
		c-10.73,7.71-25.43,11.55-44.09,11.55c-43.77,0-70.53-20.06-80.25-60.19L724.96,302.2c5.27,38.92,24.42,69.22,57.46,90.91
		c33.04,21.69,73.26,32.52,120.7,32.52c47.83,0,87.76-11.55,119.79-34.66c32.03-23.09,48.03-55.54,48.03-97.29
		C1070.93,251.71,1054.07,220.1,1020.37,198.86z"/>
	<path class="st2" d="M874.53,156.27c-21.88-4.85-32.84-16.2-32.84-34.05c0-11.77,5.07-21.59,15.21-29.49
		c10.12-7.9,23.31-11.87,39.51-11.87c17.04,0,32.22,4.97,45.62,14.92c13.37,9.92,21.88,24,25.53,42.24l98.49-20.06
		c-7.68-36.88-26.54-65.75-56.55-86.63C979.53,10.44,942.23,0,897.65,0c-48.25,0-87.17,11.57-116.76,34.66
		c-29.59,23.12-44.39,54.33-44.39,93.64c0,36.34,12.53,64.89,37.59,85.67c67.28-2.36,136.28-11.84,207.65-32.72
		c-7.14-2.29-14.7-4.36-22.7-6.13L874.53,156.27z"/>
	<g>
		<path class="st1" d="M103.59,505.57H49.28v20.6h30.18c-1.87,5.49-5.07,9.82-9.65,12.95c-4.55,3.15-10.02,4.7-16.39,4.7
			c-8.25,0-15.14-2.81-20.68-8.44c-5.54-5.66-8.32-12.65-8.32-20.97c0-8.35,2.71-15.31,8.1-20.9c5.39-5.59,12.11-8.39,20.16-8.39
			c11.67,0,19.92,4.7,24.72,14.13l23.41-6.77c-3.35-9.4-9.38-16.69-18.12-21.86c-8.71-5.14-18.73-7.71-30.01-7.71
			c-14.82,0-27.3,4.97-37.44,14.92C5.07,487.79,0,499.98,0,514.4c0,14.52,5.12,26.73,15.39,36.63
			c10.24,9.92,22.82,14.87,37.74,14.87c14.82,0,27.03-4.83,36.63-14.5c9.63-9.65,14.43-21.93,14.43-36.85
			C104.18,511.7,103.98,508.72,103.59,505.57z"/>
		<path class="st1" d="M180.91,529.32c8.39-1.85,15.02-5.66,19.82-11.47c4.82-5.79,7.24-12.87,7.24-21.29
			c0-10.04-3.4-18.17-10.14-24.37c-6.77-6.18-15.73-9.28-26.91-9.28H118.8v103h25.36v-35.35h7.39l31.04,35.35h30.6L180.91,529.32z
			 M168.14,509.33h-23.98v-24.77h23.98c4.53,0,8.12,1.13,10.86,3.4c2.71,2.24,4.06,5.22,4.06,8.91c0,3.79-1.35,6.82-4.06,9.06
			C176.26,508.2,172.67,509.33,168.14,509.33z"/>
		<path class="st1" d="M308.65,477.9c-10.14-9.99-22.57-14.99-37.3-14.99c-14.72,0-27.15,5-37.3,14.99
			c-10.17,10.02-15.24,22.23-15.24,36.66c0,14.33,5.07,26.46,15.24,36.41c10.14,9.97,22.57,14.94,37.3,14.94
			c14.72,0,27.15-4.97,37.3-14.94c10.17-9.95,15.24-22.08,15.24-36.41C323.89,500.13,318.82,487.92,308.65,477.9z M291.52,535.38
			c-5.39,5.54-12.11,8.3-20.16,8.3c-8.05,0-14.77-2.76-20.16-8.3c-5.39-5.56-8.1-12.48-8.1-20.83c0-8.44,2.71-15.46,8.1-21.05
			c5.39-5.59,12.11-8.39,20.16-8.39c8.05,0,14.77,2.81,20.16,8.39c5.39,5.59,8.1,12.6,8.1,21.05
			C299.62,522.9,296.91,529.82,291.52,535.38z"/>
		<path class="st1" d="M404.83,462.91v55.34c0,7.61-1.82,13.64-5.42,18.12c-3.62,4.46-8.42,6.67-14.45,6.67
			c-6.3,0-11.37-2.22-15.19-6.67c-3.79-4.48-5.71-10.51-5.71-18.12v-55.34h-24.81v55.34c0,14.43,4.19,25.97,12.56,34.66
			c8.37,8.67,19.42,13,33.16,13c13.44,0,24.25-4.33,32.42-13c8.17-8.69,12.24-20.24,12.24-34.66v-55.34H404.83z"/>
		<path class="st1" d="M524.08,472.43c-6.67-6.35-15.66-9.53-27.01-9.53h-49.6v103.32h24.81v-33.41h23.76
			c11.62,0,20.88-3.2,27.74-9.63c6.87-6.43,10.29-14.94,10.29-25.55C534.07,487.2,530.75,478.81,524.08,472.43z M505.57,508.23
			c-2.73,2.56-6.52,3.84-11.35,3.84h-21.93V484.1h21.93c4.73,0,8.47,1.28,11.3,3.84c2.78,2.54,4.21,5.88,4.21,9.99
			C509.73,502.24,508.32,505.67,505.57,508.23z"/>
	</g>
</g>
</svg>
